<svg xmlns="http://www.w3.org/2000/svg" viewBox="0 0 2082.78 403.59"><defs><style>.cls-1,.cls-12,.cls-3{fill:#ff3232;}.cls-2{fill:none;stroke:#ff3232;stroke-miterlimit:10;stroke-width:10px;}.cls-3{font-size:335px;letter-spacing:-0.02em;}.cls-12,.cls-3{font-family:TitilliumWeb-Light, Titillium Web;}.cls-4{letter-spacing:-0.02em;}.cls-5{letter-spacing:-0.02em;}.cls-6{letter-spacing:-0.02em;}.cls-7{letter-spacing:-0.02em;}.cls-8{letter-spacing:-0.02em;}.cls-9{letter-spacing:-0.02em;}.cls-10{letter-spacing:-0.02em;}.cls-11{letter-spacing:-0.02em;}.cls-12{font-size:72px;letter-spacing:-0.02em;}.cls-13{font-size:144px;font-family:TitilliumWeb-ExtraLight, Titillium Web;letter-spacing:-0.07em;}</style></defs><title>2018-logo</title><g id="Layer_2" data-name="Layer 2"><g id="Layer_1-2" data-name="Layer 1"><path class="cls-1" d="M198.13,202.88h0Z"/><path class="cls-1" d="M199.44,203,199,203Z"/><path class="cls-1" d="M198.13,202.88h0Z"/><path class="cls-1" d="M199.44,203,199,203Z"/><path class="cls-1" d="M243.53,194.79c0-1-.21-2.86-2.18-3.41-33.33-9.25-43.51-10.93-53.51-19.77,1.06-5.41,3.52-10.34,5.52-15.41a7.91,7.91,0,0,0-.91-8.19c-.83,3.58-8.49,14.43-10.27,17.31-.84,1.35-1.52,1-2.44.14l-7.19-6.69c-1.05-.93-1-1.69-.09-2.61,3.76-3.94,5.71-10.25,6.7-14l4.35-17.6c.55-2,.22-3.24-1.81-4.32l-7.12,19.92c-1.36,4.31-6.77,10.94-6.77,10.94-1.12,1.41-1.76,1.15-3,0l-8.22-8.2a6.77,6.77,0,0,1-2.14-5.21l.76-48.89c.05-2.73-.86-4.32-3.56-5.3l-2,19.79c-.1.88-.07,2.07-.85,2.5-1,.54-1.87-.69-2.61-1.32l-4.66-4.28c-.9-.89-1.55-.68-2.34.14a1.29,1.29,0,0,0,0,2.09l3.07,3.38c4.24,4.18,6.71,7.64,6.73,14.48,0,1.49-.23,3.48-1,3.85s-2.08-.77-3-1.42l-12.44-9.2c-1.17-.9-2.24-.89-3.11,0s.83,2.53.83,2.53l16,15.24c1.17,1.11,2.11,2.19,1.79,3.91-.51,7.72,4.28,14.77,7.64,18.48,0,0,18.49,19.24,26.95,27.92,0,0-11.55,29-19.59,41.45-10.9,16.82-45.6,33.34-45.6,33.34l62.24,43.66c13.2,0,24.63-18.06,28-30.34A48.21,48.21,0,0,0,210.06,256c.53-15.38-3.13-30.32-4.9-45.46l35.83-3S243.65,198,243.53,194.79Zm-45.42,8.09Z"/><path class="cls-2" d="M167,8.09,16.55,94.94A23.09,23.09,0,0,0,5,114.94v173.7a23.08,23.08,0,0,0,11.55,20L167,395.49a23.08,23.08,0,0,0,23.1,0L340.5,308.64a23.09,23.09,0,0,0,11.54-20V114.94a23.11,23.11,0,0,0-11.54-20L190.07,8.09A23.13,23.13,0,0,0,167,8.09Z"/><text class="cls-3" transform="translate(451.92 268.57) scale(0.7)">H<tspan class="cls-4" x="219.01" y="0">A</tspan><tspan class="cls-5" x="410.89" y="0">C</tspan><tspan class="cls-6" x="587.04" y="0">K</tspan><tspan class="cls-7" x="768.91" y="0">S</tspan><tspan class="cls-8" x="943.64" y="0">U</tspan><tspan class="cls-9" x="1152.66" y="0">RR</tspan><tspan class="cls-10" x="1550.69" y="0">E</tspan><tspan class="cls-11" x="1728.27" y="0">Y</tspan></text><text class="cls-12" transform="translate(1782.02 268.57)"> <tspan class="cls-13" x="14.56" y="0">2018</tspan></text></g></g></svg>