<svg xmlns="http://www.w3.org/2000/svg" viewBox="0 0 1783.89 403.59"><defs><style>.cls-1{fill:#ff3232;}.cls-2{fill:none;stroke:#ff3232;stroke-miterlimit:10;stroke-width:10px;}</style></defs><title>hacksurrey-logo</title><g id="Layer_2" data-name="Layer 2"><g id="Layer_1-2" data-name="Layer 1"><path class="cls-1" d="M198.13,202.88h0Z"/><path class="cls-1" d="M199.44,203,199,203Z"/><path class="cls-1" d="M198.13,202.88h0Z"/><path class="cls-1" d="M199.44,203,199,203Z"/><path class="cls-1" d="M243.53,194.79c0-1-.21-2.86-2.18-3.41-33.33-9.25-43.51-10.93-53.51-19.77,1.06-5.41,3.52-10.34,5.52-15.41a7.91,7.91,0,0,0-.91-8.19c-.83,3.58-8.49,14.43-10.27,17.31-.84,1.35-1.52,1-2.44.14l-7.19-6.69c-1.05-.93-1-1.69-.09-2.61,3.76-3.94,5.71-10.25,6.7-14l4.35-17.6c.55-2,.22-3.24-1.81-4.32l-7.12,19.92c-1.36,4.31-6.77,10.94-6.77,10.94-1.12,1.41-1.76,1.15-3,0l-8.22-8.2a6.77,6.77,0,0,1-2.14-5.21l.76-48.89c.05-2.73-.86-4.32-3.56-5.3l-2,19.79c-.1.88-.07,2.07-.85,2.5-1,.54-1.87-.69-2.61-1.32l-4.66-4.28c-.9-.89-1.55-.68-2.34.14a1.29,1.29,0,0,0,0,2.09l3.07,3.38c4.24,4.18,6.71,7.64,6.73,14.48,0,1.49-.23,3.48-1,3.85s-2.08-.77-3-1.42l-12.44-9.2c-1.17-.9-2.24-.89-3.11,0s.83,2.53.83,2.53l16,15.24c1.17,1.11,2.11,2.19,1.79,3.91-.51,7.72,4.28,14.77,7.64,18.48,0,0,18.49,19.24,26.95,27.92,0,0-11.55,29-19.59,41.45-10.9,16.82-45.6,33.34-45.6,33.34l62.24,43.66c13.2,0,24.63-18.06,28-30.34A48.21,48.21,0,0,0,210.06,256c.53-15.38-3.13-30.32-4.9-45.46l35.83-3S243.65,198,243.53,194.79Zm-45.42,8.09Z"/><path class="cls-2" d="M167,8.09,16.55,94.94A23.09,23.09,0,0,0,5,114.94v173.7a23.08,23.08,0,0,0,11.55,20L167,395.49a23.08,23.08,0,0,0,23.1,0L340.5,308.64a23.09,23.09,0,0,0,11.54-20V114.94a23.11,23.11,0,0,0-11.54-20L190.07,8.09A23.13,23.13,0,0,0,167,8.09Z"/><path class="cls-1" d="M575.27,268.57V193.29H486.86v75.28H472.32v-163h14.54V180.4h88.41V105.59h14.3v163Z"/><path class="cls-1" d="M611.1,268.57l46.9-163h34l46.66,163h-14.3l-13.13-45h-72.7l-12.9,45Zm57.45-150.32-26.5,92.4h65.66l-26.5-92.4Z"/><path class="cls-1" d="M857.26,266q-24.15,4.92-41.27,4.92t-27.55-3.63a44,44,0,0,1-17-10.2A45.18,45.18,0,0,1,761.12,240q-7-19.23-7-52.3,0-53,16.89-70.11,13.83-14.3,42.21-14.31,19.46,0,44.08,4.93l-.7,12.66q-24.39-4.45-39.16-4.45t-22.87,3.16A36,36,0,0,0,781.4,128q-5,5.28-7.62,14.66-4.69,15.95-4.69,39.87t1.64,35.76a70.49,70.49,0,0,0,6.33,21.45,28.31,28.31,0,0,0,13.84,13.84q9.15,4.21,25.33,4.22t40.33-4.46Z"/><path class="cls-1" d="M897.79,268.57H883.25v-163h14.54v76.92l28.14-.71,45.26-76.21h16.65L938.6,187.43l52.29,81.14H973.54l-47.37-73.64-28.38.47Z"/><path class="cls-1" d="M1054.65,115.91q-37.76,0-37.75,28.84,0,16.89,8.56,22.75T1059,178.28q25,4.93,35.64,13.61T1105.3,221q0,26.26-13,37.88t-38.11,11.6a319.59,319.59,0,0,1-42.44-3.28L1003.3,266l1.64-12.43q32.11,4,49.71,4t26.73-8.56q9.15-8.56,9.15-25.1t-8.09-22.51q-8.09-6-25.8-9.26t-25.91-6a57.75,57.75,0,0,1-15.36-7.74,27.81,27.81,0,0,1-10.2-12.9q-3-7.84-3-19.81,0-42.68,51.59-42.68,15.48,0,40.34,3.28l7.74,1.18-1.18,12.42Q1068.26,115.92,1054.65,115.91Z"/><path class="cls-1" d="M1146.24,220.73q0,37.05,40.57,37,21.11,0,31.66-8.68T1229,220.73V105.59h14.54V220.73q0,26.51-14.31,38.34t-41.85,11.84q-27.57,0-41.51-11.84t-14-38.34V105.59h14.3Z"/><path class="cls-1" d="M1293.72,204.31v64.26h-14.53v-163H1339q25.56,0,38.11,11.61t12.54,36.7q0,39.16-31.42,47.6l33.54,67.07h-16.19l-32.12-64.26Zm80.91-50.18q0-18.28-8.68-27t-27-8.67h-45.26v72.93H1339Q1374.62,191.42,1374.63,154.13Z"/><path class="cls-1" d="M1433,204.31v64.26h-14.54v-163h59.8q25.56,0,38.11,11.61t12.54,36.7q0,39.16-31.42,47.6l33.54,67.07h-16.19l-32.12-64.26Zm80.91-50.18q0-18.28-8.68-27t-27-8.67H1433v72.93h45.26Q1513.93,191.42,1513.94,154.13Z"/><path class="cls-1" d="M1557.81,268.57v-163h97.78v13.13h-83.25v60.5h69.18v12.9h-69.18v63.55h83.25v12.9Z"/><path class="cls-1" d="M1731.59,268.57h-14.53V199.62l-52.3-94h16.18l43.38,79,43.15-79h16.42l-52.3,94Z"/></g></g></svg>