<svg viewBox="0 0 2033.1 413.53" xmlns="http://www.w3.org/2000/svg"><path d="m178.8 6.12-173.5 100.32v200.65l173.5 100.32 173.5-100.32v-200.65z" fill="#ff3232" stroke="#ff3232" stroke-miterlimit="10" stroke-width="10.6"/><path d="m243 212-35.93 3c1.77 15.19 5.44 30.16 4.9 45.6a48 48 0 0 1 -2.32 13.78c-3.37 12.3-14.83 30.42-28.06 30.42l-62.45-43.8s34.8-16.57 45.73-33.44c8.06-12.45 19.64-41.57 19.64-41.57-8.48-8.71-27-28-27-28-3.38-3.71-8.18-10.79-7.67-18.53.32-1.72-.62-2.81-1.79-3.92l-16.05-15.32s-1.84-1.57-.83-2.54 1.94-.87 3.12 0l12.47 9.22c.9.65 2.26 1.81 3 1.43s1-2.37 1-3.86c0-6.86-2.5-10.33-6.76-14.53l-3.07-3.39a1.29 1.29 0 0 1 0-2.1c.79-.81 1.44-1 2.35-.13l4.67 4.29c.74.64 1.62 1.87 2.62 1.33.78-.44.75-1.63.85-2.51l2-19.86c2.72 1 3.63 2.59 3.58 5.33l-.76 49a6.77 6.77 0 0 0 2.15 5.22l8.24 8.23c1.26 1.1 1.89 1.35 3 0 0 0 5.42-6.65 6.78-11l7.15-20c2 1.07 2.36 2.32 1.82 4.32l-4.38 17.72c-1 3.77-3 10.1-6.72 14.05-.88.92-1 1.67.09 2.62l7.22 6.71c.92.89 1.6 1.21 2.43-.14 1.8-2.89 9.48-13.77 10.31-17.37a7.94 7.94 0 0 1 .9 8.22c-2 5.09-4.46 10-5.52 15.45 10 8.87 20.24 10.54 53.66 19.83 2 .55 2.14 2.4 2.19 3.42.07 3.26-2.56 12.82-2.56 12.82" fill="#fff"/><g fill="#ff3232"><path d="m570.2 273v-75.28h-88.41v75.28h-14.54v-163h14.54v74.8h88.41v-74.8h14.3v163z"/><path d="m606 273 46.9-163h34l46.66 163h-14.3l-13.14-45h-72.66l-12.9 45zm57.46-150.32-26.46 92.39h65.66l-26.5-92.39z"/><path d="m852.19 270.42q-24.15 4.92-41.27 4.92t-27.56-3.63a44.24 44.24 0 0 1 -17-10.21 44.92 44.92 0 0 1 -10.31-17.11q-7-19.23-7-52.3 0-53 16.88-70.11 13.85-14.31 42.21-14.31 19.47 0 44.09 4.93l-.7 12.66q-24.39-4.45-39.17-4.46t-22.9 3.2a36 36 0 0 0 -13.13 8.44q-5 5.28-7.62 14.66-4.71 15.9-4.71 39.83t1.64 35.77a70.58 70.58 0 0 0 6.36 21.45 28.39 28.39 0 0 0 13.83 13.85q9.13 4.22 25.32 4.22t40.34-4.46z"/><path d="m892.72 273h-14.54v-163h14.54v76.91l28.14-.7 45.26-76.21h16.65l-49.25 81.84 52.3 81.16h-17.36l-47.36-73.64-28.38.47z"/><path d="m1049.58 120.34q-37.75 0-37.76 28.84 0 16.89 8.56 22.75t33.54 10.78q25 4.93 35.64 13.6t10.67 29.08q0 26.27-13 37.87t-38.11 11.61a319.59 319.59 0 0 1 -42.44-3.28l-8.45-1.17 1.63-12.42q32.13 4 49.72 4t26.73-8.56q9.15-8.55 9.15-25.09t-8.09-22.51q-8.1-6-25.8-9.26t-25.91-6a58.05 58.05 0 0 1 -15.36-7.74 27.81 27.81 0 0 1 -10.2-12.9q-3-7.85-3.05-19.81 0-42.68 51.59-42.68 15.48 0 40.34 3.28l7.73 1.17-1.17 12.43q-32.35-3.98-45.96-3.99z"/><path d="m1141.17 225.16q0 37.05 40.57 37 21.1 0 31.66-8.68t10.6-28.32v-115.16h14.54v115.16q0 26.51-14.31 38.34t-41.86 11.84q-27.55 0-41.5-11.84t-14-38.34v-115.16h14.31z"/><path d="m1288.65 208.74v64.26h-14.54v-163h59.8q25.56 0 38.11 11.61t12.54 36.7q0 39.16-31.42 47.6l33.53 67.09h-16.18l-32.12-64.26zm80.9-50.18q0-18.28-8.67-27t-27-8.67h-45.26v72.93h45.26q35.67.03 35.67-37.26z"/><path d="m1428 208.74v64.26h-14.54v-163h59.8q25.56 0 38.11 11.61t12.54 36.7q0 39.16-31.42 47.6l33.51 67.09h-16.2l-32.12-64.26zm80.9-50.18q0-18.28-8.67-27t-27-8.67h-45.23v72.93h45.26q35.6.03 35.6-37.26z"/><path d="m1552.73 273v-163h97.79v13.13h-83.25v60.5h69.18v12.9h-69.18v63.57h83.25v12.9z"/><path d="m1726.52 273h-14.52v-68.95l-52.29-94h16.18l43.38 79 43.15-79h16.42l-52.3 94z"/><path d="m1804 273v-100.08h16.7l31 87.55 30.82-87.55h16.7v100.08h-8.92v-90.87h-2l-31.39 87.55h-10.51l-31.4-87.55h-2v90.87z"/><path d="m1922.93 273h-6.25v-70.06h6.25v33.06l12.1-.3 19.45-32.76h7.16l-21.17 35.18 22.53 34.88h-7.46l-20.36-31.66-12.2.21z"/><path d="m2033.1 273h-60.63v-7.49l29.67-31.39c4.79-5.09 8.28-8.91 10.43-11.45a44.42 44.42 0 0 0 5.91-9.29 25.17 25.17 0 0 0 2.66-11.09q0-9.64-5.4-13.68t-16.63-4a98.27 98.27 0 0 0 -21.17 2.59l-3.88.87-.72-7.64a100.46 100.46 0 0 1 27.86-3.88q14.33 0 21.74 6t7.42 19.08a32.66 32.66 0 0 1 -4.46 17.28q-4.47 7.35-15 17.86l-27.65 28.51h49.83z"/></g></svg>