<svg xmlns="http://www.w3.org/2000/svg" viewBox="0 0 1565.84 167.9"><defs><style>.cls-1{fill:#ff3232;}</style></defs><title>Outline</title><g id="Layer_2" data-name="Layer 2"><g id="Layer_1-2" data-name="Layer 1"><g id="Outline"><path class="cls-1" d="M103,165.56V90.28H14.54v75.28H0V2.58H14.54V77.39H103V2.58h14.3v163Z"/><path class="cls-1" d="M138.77,165.56l46.9-163h34l46.67,163H252l-13.13-45H166.21l-12.9,45ZM196.22,15.24l-26.5,92.4h65.66l-26.49-92.4Z"/><path class="cls-1" d="M384.94,163q-24.17,4.92-41.27,4.92t-27.56-3.63a44.15,44.15,0,0,1-17-10.2A45.18,45.18,0,0,1,288.79,137q-7-19.23-7-52.29,0-53,16.88-70.12Q312.47.23,340.85.24q19.47,0,44.09,4.92l-.71,12.66q-24.39-4.46-39.16-4.45t-22.86,3.16A36,36,0,0,0,309.08,25q-5.06,5.28-7.62,14.66-4.69,15.94-4.69,39.87t1.64,35.76a70.49,70.49,0,0,0,6.33,21.45,28.29,28.29,0,0,0,13.83,13.84q9.15,4.22,25.33,4.22t40.33-4.46Z"/><path class="cls-1" d="M425.47,165.56H410.93V2.58h14.54V79.5l28.14-.71L498.87,2.58h16.65L466.27,84.42l52.3,81.14H501.21L453.84,91.92l-28.37.47Z"/><path class="cls-1" d="M582.33,12.9q-37.77,0-37.76,28.84,0,16.89,8.56,22.75t33.54,10.78q25,4.94,35.64,13.61T633,118q0,26.27-13,37.88t-38.1,11.6a319.61,319.61,0,0,1-42.45-3.28L531,163l1.64-12.43q32.13,4,49.72,4T609.06,146q9.15-8.56,9.15-25.1t-8.1-22.51q-8.08-6-25.79-9.26t-25.91-6a57.75,57.75,0,0,1-15.36-7.74,27.81,27.81,0,0,1-10.2-12.9q-3.06-7.85-3.05-19.81Q529.8,0,581.39,0q15.48,0,40.33,3.28l7.74,1.18-1.17,12.42Q595.92,12.91,582.33,12.9Z"/><path class="cls-1" d="M673.92,117.72q0,37,40.57,37.05,21.09,0,31.65-8.68t10.56-28.37V2.58h14.53V117.72q0,26.5-14.3,38.34T715.07,167.9q-27.55,0-41.51-11.84t-13.95-38.34V2.58h14.31Z"/><path class="cls-1" d="M821.4,101.3v64.26H806.86V2.58h59.8q25.56,0,38.1,11.61t12.55,36.7q0,39.17-31.42,47.6l33.53,67.07H903.24L871.11,101.3Zm80.9-50.18q0-18.28-8.68-27t-27-8.67H821.4V88.41h45.26Q902.3,88.41,902.3,51.12Z"/><path class="cls-1" d="M960.71,101.3v64.26H946.17V2.58H1006q25.56,0,38.1,11.61t12.55,36.7q0,39.17-31.42,47.6l33.53,67.07h-16.18l-32.13-64.26Zm80.9-50.18q0-18.28-8.68-27t-27-8.67H960.71V88.41H1006Q1041.61,88.41,1041.61,51.12Z"/><path class="cls-1" d="M1085.48,165.56V2.58h97.79V15.71H1100v60.5h69.18v12.9H1100v63.55h83.25v12.9Z"/><path class="cls-1" d="M1259.27,165.56h-14.54V96.61l-52.29-94h16.18l43.38,79,43.15-79h16.41l-52.29,94Z"/><path class="cls-1" d="M1336.79,165.56V65.48h16.7l31,87.55,30.82-87.55H1432V165.56H1423V74.69h-2l-31.4,87.56h-10.51l-31.39-87.56h-2v90.87Z"/><path class="cls-1" d="M1455.68,165.56h-6.25V95.5h6.25v33.06l12.09-.3,19.46-32.76h7.16l-21.17,35.18,22.48,34.88h-7.46l-20.36-31.65-12.2.2Z"/><path class="cls-1" d="M1565.84,165.56h-60.62v-7.49l29.66-31.39q7.2-7.64,10.44-11.45a44.16,44.16,0,0,0,5.91-9.29,25.17,25.17,0,0,0,2.66-11.09q0-9.64-5.4-13.68t-16.63-4a98.27,98.27,0,0,0-21.17,2.59l-3.89.87-.72-7.63A100.16,100.16,0,0,1,1534,69.08q14.33,0,21.74,6t7.42,19.08a32.55,32.55,0,0,1-4.47,17.28q-4.46,7.35-15,17.86L1516,157.78h49.82Z"/></g></g></g></svg>