<svg xmlns="http://www.w3.org/2000/svg" viewBox="0 0 2033.17 393.59"><defs><style>.cls-1{fill:#ff3232;}.cls-2{fill:#371e59;}.cls-3{fill:#fff;}</style></defs><title>Outline</title><g id="Layer_2" data-name="Layer 2"><g id="Layer_1-2" data-name="Layer 1"><path class="cls-1" d="M162,3.09,11.55,89.94A23.09,23.09,0,0,0,0,109.94v173.7a23.08,23.08,0,0,0,11.55,20L162,390.49a23.08,23.08,0,0,0,23.1,0L335.5,303.64a23.09,23.09,0,0,0,11.54-20V109.94a23.11,23.11,0,0,0-11.54-20L185.07,3.09A23.13,23.13,0,0,0,162,3.09Z"/><path class="cls-2" d="M193.13,197.88h0Z"/><path class="cls-2" d="M194.44,198,194,198Z"/><path class="cls-2" d="M193.13,197.88h0Z"/><path class="cls-2" d="M194.44,198,194,198Z"/><path class="cls-3" d="M238.53,189.79c0-1-.21-2.86-2.18-3.41-33.33-9.25-43.51-10.93-53.51-19.77,1.06-5.41,3.52-10.34,5.52-15.41a7.91,7.91,0,0,0-.91-8.19c-.83,3.58-8.49,14.43-10.27,17.31-.84,1.35-1.52,1-2.44.14l-7.19-6.69c-1.05-.93-1-1.69-.09-2.61,3.76-3.94,5.71-10.25,6.7-14l4.35-17.6c.55-2,.22-3.24-1.81-4.32l-7.12,19.92c-1.36,4.31-6.77,10.94-6.77,10.94-1.12,1.41-1.76,1.15-3,0l-8.22-8.2a6.77,6.77,0,0,1-2.14-5.21l.76-48.89c.05-2.73-.86-4.32-3.56-5.3l-2,19.79c-.1.88-.07,2.07-.85,2.5-1,.54-1.87-.69-2.61-1.32l-4.66-4.28c-.9-.89-1.55-.68-2.34.14a1.29,1.29,0,0,0,0,2.09l3.07,3.38c4.24,4.18,6.71,7.64,6.73,14.48,0,1.49-.23,3.48-1,3.85s-2.08-.77-3-1.42l-12.44-9.2c-1.17-.9-2.24-.89-3.11,0s.83,2.53.83,2.53l16,15.24c1.17,1.11,2.11,2.19,1.79,3.91-.51,7.72,4.28,14.77,7.64,18.48,0,0,18.49,19.24,26.95,27.92,0,0-11.55,29-19.59,41.45-10.9,16.82-45.6,33.34-45.6,33.34l62.24,43.66c13.2,0,24.63-18.06,28-30.34A48.21,48.21,0,0,0,205.06,251c.53-15.38-3.13-30.32-4.9-45.46l35.83-3S238.65,193,238.53,189.79Zm-45.42,8.09Z"/><path class="cls-1" d="M570.27,263.57V188.29H481.86v75.28H467.33v-163h14.53V175.4h88.41V100.59h14.31v163Z"/><path class="cls-1" d="M606.1,263.57l46.9-163h34l46.66,163h-14.3l-13.13-45h-72.7l-12.89,45Zm57.45-150.32-26.5,92.4h65.66l-26.5-92.4Z"/><path class="cls-1" d="M852.26,261q-24.15,4.92-41.27,4.92t-27.55-3.63a44.08,44.08,0,0,1-17-10.2A45.18,45.18,0,0,1,756.12,235q-7-19.23-7-52.29,0-53,16.89-70.12,13.83-14.31,42.21-14.3,19.46,0,44.08,4.92l-.7,12.66q-24.39-4.45-39.16-4.45t-22.87,3.16A36,36,0,0,0,776.4,123q-5,5.28-7.62,14.66-4.69,15.95-4.69,39.87t1.64,35.76a70.49,70.49,0,0,0,6.33,21.45,28.31,28.31,0,0,0,13.84,13.84q9.15,4.22,25.33,4.22t40.33-4.46Z"/><path class="cls-1" d="M892.79,263.57H878.26v-163h14.53v76.92l28.14-.71,45.26-76.21h16.65L933.6,182.43l52.29,81.14H968.54l-47.37-73.64-28.38.47Z"/><path class="cls-1" d="M1049.65,110.91q-37.76,0-37.75,28.84,0,16.89,8.56,22.75T1054,173.28q25,4.93,35.64,13.61T1100.3,216q0,26.26-13,37.88t-38.11,11.6a319.59,319.59,0,0,1-42.44-3.28L998.3,261l1.64-12.43q32.12,4,49.71,4t26.74-8.56q9.13-8.56,9.14-25.1t-8.09-22.51q-8.09-6-25.8-9.26t-25.91-6a57.75,57.75,0,0,1-15.36-7.74,27.81,27.81,0,0,1-10.2-12.9q-3-7.84-3-19.81,0-42.68,51.59-42.68,15.48,0,40.34,3.28l7.74,1.18-1.18,12.42Q1063.26,110.92,1049.65,110.91Z"/><path class="cls-1" d="M1141.24,215.73q0,37.05,40.57,37.05,21.11,0,31.66-8.68T1224,215.73V100.59h14.54V215.73q0,26.51-14.3,38.34t-41.86,11.84q-27.57,0-41.51-11.84t-14-38.34V100.59h14.3Z"/><path class="cls-1" d="M1288.72,199.31v64.26h-14.53v-163H1334q25.56,0,38.11,11.61t12.55,36.7q0,39.16-31.43,47.6l33.54,67.07h-16.18l-32.13-64.26Zm80.91-50.18q0-18.28-8.68-27t-27-8.67h-45.26v72.93H1334Q1369.64,186.42,1369.63,149.13Z"/><path class="cls-1" d="M1428,199.31v64.26H1413.5v-163h59.79q25.56,0,38.11,11.61t12.54,36.7q0,39.16-31.42,47.6l33.54,67.07h-16.18l-32.13-64.26Zm80.91-50.18q0-18.28-8.68-27t-27-8.67H1428v72.93h45.26Q1508.93,186.42,1508.94,149.13Z"/><path class="cls-1" d="M1552.81,263.57v-163h97.78v13.13h-83.24v60.5h69.17v12.9h-69.17v63.55h83.24v12.9Z"/><path class="cls-1" d="M1726.6,263.57h-14.54V194.62l-52.3-94h16.18l43.39,79,43.14-79h16.42l-52.29,94Z"/><path class="cls-1" d="M1804.11,263.57V163.49h16.71l31,87.55,30.81-87.55h16.71V263.57h-8.93V172.7h-2L1857,260.26h-10.51l-31.39-87.56h-2v90.87Z"/><path class="cls-1" d="M1923,263.57h-6.25V193.51H1923v33.06l12.1-.3,19.45-32.76h7.16l-21.17,35.18L1963,263.57h-7.46l-20.36-31.65-12.2.2Z"/><path class="cls-1" d="M2033.17,263.57h-60.63v-7.49l29.67-31.39q7.2-7.63,10.44-11.45a44.14,44.14,0,0,0,5.9-9.29,25,25,0,0,0,2.67-11.09q0-9.65-5.4-13.68t-16.64-4a98.19,98.19,0,0,0-21.16,2.59l-3.89.87-.72-7.63a100.09,100.09,0,0,1,27.86-3.89q14.32,0,21.75,6t7.41,19.08a32.64,32.64,0,0,1-4.46,17.28q-4.47,7.35-15,17.86l-27.65,28.51h49.83Z"/></g></g></svg>