<?xml version="1.0" encoding="UTF-8"?>
<svg width="512px" height="512px" viewBox="0 0 512 512" version="1.1" xmlns="http://www.w3.org/2000/svg" xmlns:xlink="http://www.w3.org/1999/xlink">
    <!-- Generator: Sketch 52.5 (67469) - http://www.bohemiancoding.com/sketch -->
    <title>icon-512</title>
    <desc>Created with Sketch.</desc>
    <g id="icon-512" stroke="none" stroke-width="1" fill="none" fill-rule="evenodd">
        <rect fill="#FFFFFF" x="0" y="0" width="512" height="512"></rect>
        <g id="icon" transform="translate(-37.000000, -37.000000)">
            <path d="M292.891173,499.626196 C407.137702,499.626196 499.752812,407.011085 499.752812,292.764556 C499.752812,178.518027 407.137702,85.9029167 292.891173,85.9029167 C178.644644,85.9029167 86.0295328,178.518027 86.0295328,292.764556 C86.0295328,407.011085 178.644644,499.626196 292.891173,499.626196 Z" id="Oval" fill="#73CAC2" transform="translate(292.891173, 292.764556) rotate(-45.000000) translate(-292.891173, -292.764556) "></path>
            <path d="M545.71259,275.753052 C524.104137,286.183458 522.145689,327.286825 517.049356,327.563223 C513.627532,327.752338 519.772254,291.311378 502.306392,240.490422 C499.692701,232.889463 504.177474,213.468831 497.668729,198.746974 C494.203222,190.876891 491.494885,193.859085 484.978859,174.780315 C483.821263,171.405344 480.690659,172.081793 480.821707,178.220749 C480.989158,185.763518 484.272653,193.982737 486.37671,199.350687 C489.543718,207.446254 487.585269,218.1967 485.648663,218.57493 C484.556591,218.785866 476.562629,199.161572 453.549044,192.186147 C444.084425,189.320331 430.069509,180.431937 424.995017,172.219992 C424.376176,171.223503 421.21645,169.979709 421.777047,176.14776 C423.233142,192.040674 437.830496,198.8779 447.21503,204.471333 C487.738159,228.619833 494.683734,287.427251 493.082029,288.2419 C488.327878,290.613108 477.865834,267.293803 475.193899,259.620107 C468.641471,240.774094 462.569554,240.657716 455.536614,235.144293 C446.137519,227.783364 450.047135,237.464585 452.151193,240.628621 C457.436818,248.62963 463.501455,253.444783 465.984097,272.043493 C470.177651,303.458365 496.627621,308.891777 496.562096,310.855661 C495.484586,363.262272 472.75494,409.049866 407.740289,435.853247 C381.479612,446.683704 353.711876,461.311004 344.946183,489.285441 C339.172765,507.716857 331.062315,505.36747 329.657183,507.156787 C320.920612,518.416389 361.050596,540.200955 377.708325,527.632097 C379.77598,526.075537 377.147728,522.795123 380.518589,517.2817 C380.518589,517.2817 426.640405,534.222019 459.249657,478.004018 C459.249657,478.004018 518.94956,481.568104 522.669884,429.161494 C523.055749,423.720807 519.590242,417.843702 518.301598,423.488051 C510.664379,456.71406 481.77545,463.754948 470.789211,464.533228 C470.789211,464.533228 490.169838,447.600183 490.912447,434.84221 C490.970691,433.882089 489.296181,428.91419 488.000257,432.660117 C487.44694,434.274866 485.342883,437.344344 482.99857,439.497343 C471.182357,450.378715 455.580297,463.18033 455.580297,463.18033 C442.955951,462.736638 441.150393,451.542499 445.38763,447.818392 C464.578965,430.972631 490.999813,410.111818 500.930382,383.526646 C505.859264,370.332255 506.427142,361.560239 519.750413,346.300132 C526.13539,338.982846 533.073684,337.120793 536.146045,311.117513 C537.784152,297.239398 538.716053,294.184467 545.836358,283.746787 C550.000791,277.629652 549.207219,274.065566 545.71259,275.753052 Z M445.970068,475.778283 C444.572217,480.14247 425.817711,503.418133 397.190879,503.381765 C391.737802,503.381765 378.079629,502.319813 379.237225,494.027858 C380.635076,483.997502 400.42341,470.02483 411.052905,465.391518 C414.125266,464.053168 421.864412,464.540502 427.069953,467.122646 C434.779977,470.977677 445.940947,475.785557 445.940947,475.785557 L445.970068,475.778283 Z" id="Shape" fill="#231F20" fill-rule="nonzero"></path>
            <path d="M40.1924937,283.775388 C47.3133496,294.205939 48.2453226,297.268186 49.8835563,311.139219 C52.9488736,337.142861 59.8877036,339.004939 66.2731746,346.322328 C79.6047566,361.597194 80.1653966,370.325689 85.0946598,383.549359 C95.0259967,410.142173 121.448886,430.996002 140.641705,447.841997 C144.857426,451.544334 143.051728,462.767724 130.44825,463.211422 C130.44825,463.211422 114.837703,450.387808 103.006015,439.491737 C100.668802,437.309614 98.5645815,434.269188 98.0039415,432.654416 C96.7079166,428.908437 95.0332777,433.876406 95.091526,434.83654 C95.8196299,447.587416 115.216317,464.52797 115.216317,464.52797 C104.207387,463.786048 75.3089437,456.708694 67.671134,423.482223 C66.3751091,417.837796 62.9093347,423.714983 63.3025108,429.163018 C67.0304026,481.533988 126.734921,478.006221 126.734921,478.006221 C159.339412,534.225002 205.464793,517.284448 205.464793,517.284448 C208.835914,522.790674 206.192897,526.071133 208.275274,527.634989 C224.956134,540.196748 265.118343,518.419153 256.33013,507.15212 C254.939451,505.362779 246.864779,507.712199 241.039948,489.287801 C232.302702,461.305701 204.503696,446.678198 178.240989,435.847591 C113.235875,409.058385 90.4971906,363.262882 89.4341589,310.862817 C89.3904727,308.898906 115.849768,303.458144 120.014522,272.042836 C122.497356,253.451142 128.562461,248.599553 133.848495,240.627528 C135.945435,237.463449 139.855352,227.789367 130.44825,235.143124 C123.407486,240.656623 117.342381,240.773003 110.789446,259.619278 C108.110023,267.29308 97.6835758,290.612709 92.8926523,288.241468 C91.2616996,287.426808 98.2078106,228.596752 138.763197,204.469738 C148.148456,198.876227 162.790625,192.038906 164.246832,176.145772 C164.800191,169.984909 161.64022,171.221446 161.021332,172.217949 C155.924605,180.430008 141.894043,189.325799 132.465098,192.184381 C109.427891,199.167177 101.418749,218.791743 100.326593,218.573531 C98.4116797,218.20257 96.4676424,207.451973 99.598489,199.349021 C101.695428,193.98827 104.979177,185.768937 105.146641,178.255158 C105.277699,172.116117 102.146853,171.446932 100.996448,174.814676 C94.4435136,193.893711 91.7713724,190.918749 88.2910358,198.818037 C81.7890682,213.540099 86.2741881,232.961 83.6675762,240.562064 C66.1930832,291.383726 72.3455609,327.847013 68.9089106,327.636075 C63.8121835,327.359673 61.8681461,286.255735 40.250742,275.832457 C36.7922486,274.072211 35.9986154,277.629073 40.1924937,283.775388 Z M158.982641,467.131971 C164.195865,464.557065 171.935609,464.062451 175.000927,465.408094 C185.631243,470.034196 205.421107,484.014335 206.819066,494.037557 C207.976751,502.329627 194.317522,503.377046 188.864024,503.391594 C160.213137,503.457058 141.457181,480.166524 140.081065,475.795002 C140.066503,475.795002 151.235616,470.979783 158.982641,467.131971 Z" id="Shape" fill="#231F20" fill-rule="nonzero"></path>
            <path d="M224.598141,229.459488 L224.598141,222.058187 C224.744396,214.868979 213.146337,205.866013 195.54449,205.866013 C178.864052,205.866013 167.52194,213.055221 167.251367,228.260068 C166.973482,243.925667 180.662995,248.737976 195.354358,252.036382 C220.517613,257.660493 211.764222,272.038909 198.213652,272.038909 C186.73991,272.038909 183.931805,259.320666 178.768986,259.335293 C175.770749,259.335293 166.607843,259.335293 166.607843,259.335293 L167.807138,267.994523 C167.807138,267.994523 169.028371,285.678659 198.396472,285.334922 C217.885014,285.100889 227.888889,277.582572 227.888889,261.543982 C227.888889,244.03537 215.076909,241.680411 199.456824,236.985119 C191.039821,234.454635 182.966518,233.811044 182.966518,227.031393 C182.966518,220.990411 189.321319,218.986501 195.54449,218.986501 C202.798761,218.986501 206.594091,222.497 208.96343,225.415101 C211.076353,228.040483 214.297332,229.523913 217.665631,229.422921 C219.449948,229.459488 224.598141,229.459488 224.598141,229.459488 Z" id="Path" fill="#231F20"></path>
            <path d="M269.534625,221.896841 L291.084967,221.896841 L291.084967,208.738562 L237.19449,208.738562 C232.98384,208.738562 229.803922,212.167689 229.803922,214.900841 L229.803922,221.846093 L252.860157,221.896841 L252.984429,284.382353 L269.534625,284.382353 L269.534625,221.896841 Z" id="Path" fill="#231F20"></path>
            <path d="M330.002801,213.668386 C329.438307,212.073443 328.331031,208.738562 325.038151,208.738562 L313.589062,208.738562 C310.310656,208.738562 309.246803,212.087942 308.667835,213.668386 L283.424837,284.382353 L299.838575,284.382353 L305.027575,268.83891 L333.62135,268.83891 L336.697116,277.893835 C337.818867,281.257715 339.164967,284.382353 343.340773,284.382353 L355.238562,284.382353 L330.002801,213.668386 Z M309.738926,254.745414 L319.328081,225.971195 L328.917236,254.738165 L309.738926,254.745414 Z" id="Shape" fill="#231F20" fill-rule="nonzero"></path>
            <path d="M255.313589,323.780403 C254.748868,322.193471 253.641146,318.852941 250.339698,318.852941 L238.922192,318.852941 C235.635224,318.852941 234.578182,322.200717 233.99174,323.780403 C228.272127,339.809148 208.738562,394.467747 208.738562,394.467747 L225.16616,394.467747 L230.357252,378.924502 L258.962558,378.924502 L262.003365,387.975091 C263.125567,391.337359 264.479451,394.496732 268.65694,394.496732 L280.552288,394.496732 C280.552288,394.496732 256.298232,326.555724 255.313589,323.780403 Z M235.041543,364.845004 L244.656285,336.084566 L254.242067,364.830511 L235.041543,364.845004 Z" id="Shape" fill="#231F20" fill-rule="nonzero"></path>
            <path d="M407.509353,258.089446 C407.509353,264.454479 399.176319,271.521861 389.310357,271.521861 C379.444395,271.521861 367.958322,265.193409 368.29978,244.817986 C368.641238,224.713261 381.14442,219.804138 389.310357,219.804138 C396.982269,219.804138 400.934466,223.001286 403.753312,226.388655 C410.001271,233.851107 422.264706,233.207288 422.264706,233.207288 L422.264706,229.249262 C422.264706,217.236176 405.402483,204.908497 389.310357,204.908497 C373.908413,204.908497 351.408497,215.670524 351.408497,244.876515 C351.408497,277.257707 372.535315,286.293128 389.310357,286.293128 C396.918015,286.441738 404.080615,282.692 408.330305,276.335875 C410.735043,280.667024 412.456864,286.293128 422.264706,282.971605 L422.264706,241.489147 L389.310357,241.489147 C389.310357,245.432541 390.385587,250.341665 392.216384,251.168387 L407.509353,258.089446 Z" id="Path" fill="#231F20"></path>
            <path d="M284.382353,389.926275 L284.382353,322.441019 C284.382353,314.894281 289.055459,316.331063 294.336214,319.538427 C306.026214,326.678803 333.500607,343.484808 346.73143,351.524987 C351.585384,354.492887 351.795168,357.714764 346.73143,360.733459 L293.417508,392.611172 C289.655874,394.867937 284.382353,396.224899 284.382353,389.926275 Z" id="Path" fill="#231F20"></path>
            <rect id="Rectangle" fill="#231F20" x="194.375817" y="300.660131" width="204.908497" height="4.7875817"></rect>
            <path d="M353.323529,395.454248 L369.601307,395.454248 L369.601307,320.803726 C369.601307,320.803726 364.146673,320.723284 361.369115,320.803726 C353.323529,321.030427 353.323529,328.445751 353.323529,331.378242" id="Path" fill="#231F20"></path>
            <path d="M196.063786,359.819668 C196.063786,359.819668 205.866013,355.71474 205.866013,341.592617 C205.866013,327.777815 198.645233,320.767974 187.817698,320.767974 L153.284479,320.767974 C148.27429,320.767974 146.5,322.421653 146.5,327.499763 L146.5,395.454248 L161.436035,395.454248 L161.530567,365.453883 C161.530567,365.453883 175.724891,365.505104 181.164109,365.505104 C184.618158,365.505104 188.95208,369.163685 188.857549,375.017414 C188.784832,379.751618 188.857549,386.468773 188.857549,390.537115 C188.857549,392.688361 191.940742,395.439614 194.449472,395.42498 C196.958202,395.410345 202.69556,395.42498 202.69556,395.42498 L202.69556,370.649069 C202.673745,363.03922 196.063786,359.819668 196.063786,359.819668 Z M184.516354,352.304943 L161.436035,352.304943 L161.436035,333.280321 L184.429094,333.280321 C187.788611,333.280321 191.11177,335.797425 191.11177,342.792632 C191.126313,348.748802 188.064935,352.297626 184.530898,352.297626 L184.516354,352.304943 Z" id="Shape" fill="#231F20" fill-rule="nonzero"></path>
            <path d="M411.728367,316.937908 C387.788029,316.937908 376.303922,333.038499 376.303922,356.576306 C376.303922,379.763784 387.592154,396.411765 411.728367,396.411765 C436.045946,396.411765 447.160067,379.938949 447.160067,356.671187 C447.189085,335.125883 437.359037,316.937908 411.728367,316.937908 Z M411.728367,381.500837 C396.275967,381.500837 391.117912,370.750081 391.117912,356.576306 C391.117912,342.139784 396.196166,331.92912 411.728367,331.92912 C427.093711,331.92912 432.251765,342.234665 432.251765,356.576306 C432.280784,371.027425 427.296841,381.500837 411.728367,381.500837 Z" id="Shape" fill="#231F20" fill-rule="nonzero"></path>
            <path d="M293.957505,443.808794 C293.957505,444.776976 293.374287,445.649824 292.479803,446.020331 C291.58532,446.390838 290.555726,446.186039 289.871118,445.501431 C289.18651,444.816823 288.981711,443.787229 289.352218,442.892746 C289.722725,441.998262 290.595573,441.415044 291.563755,441.415044 C292.199212,441.413098 292.809203,441.664671 293.258541,442.114008 C293.707878,442.563346 293.959451,443.173337 293.957505,443.808794 Z" id="Path" fill="#231F20"></path>
            <path d="M304.990391,427.199469 L304.990391,446.202614 L309.277778,446.202614 L309.277778,421.30719 C305.226197,421.30719 302.575163,424.844007 302.575163,427.213964 L304.990391,427.199469 Z" id="Path" fill="#231F20"></path>
            <path d="M362.898693,441.659348 C361.220648,441.659348 355.683838,441.72594 355.683838,441.72594 C355.683838,441.72594 362.883908,433.276102 362.883908,427.948709 C362.883908,423.324235 359.838293,420.371971 354.752412,420.349774 C349.66653,420.327576 346.620915,423.98276 346.620915,429.569124 L348.143723,429.569124 C349.11211,429.569124 351.004531,428.422255 351.181945,427.49736 C351.566343,425.447793 352.800852,424.256529 354.952003,424.278726 C357.273176,424.278726 358.367232,425.669768 358.345055,427.58615 C358.285917,431.655687 351.965526,439.254621 348.483767,443.457343 C346.140418,446.276422 346.465677,446.20243 348.905126,446.20243 L359.616525,446.20243 C361.538515,446.20243 362.898693,445.099956 362.898693,442.769221 L362.898693,441.659348 Z" id="Path" fill="#231F20"></path>
            <path d="M328.428105,427.657379 L328.428105,427.436602 C328.340393,423.573012 326.059896,420.349673 320.285561,420.349673 C314.781669,420.349673 312.150327,423.293361 312.150327,427.642661 C312.150327,431.99196 314.737814,435.001881 320.285561,434.965085 C320.865373,434.998766 321.446914,434.944184 322.010552,434.803182 C319.189168,440.469782 318.217033,442.692266 316.338547,446.05543 L316.258145,446.202614 L320.643716,446.202614 C320.643716,446.202614 328.428105,432.072911 328.428105,427.900233 L328.428105,427.657379 Z M316.404331,427.620583 C316.404331,425.015419 318.15125,424.161749 320.387891,424.191186 C322.624532,424.220623 324.276431,425.09637 324.247194,427.716253 C324.217956,430.336135 322.573367,431.160368 320.307489,431.130931 C318.041611,431.101494 316.345856,430.203669 316.382403,427.583787 L316.404331,427.620583 Z" id="Shape" fill="#231F20" fill-rule="nonzero"></path>
            <path d="M329.394389,425.202549 L329.394389,424.703924 C329.325061,423.788677 329.669376,422.889349 330.338086,422.239048 C331.006796,421.588746 331.934064,421.251498 332.879539,421.314718 L345.663399,421.314718 C345.663399,421.314718 345.663399,421.762758 345.663399,422.427592 C345.643912,423.118316 345.492079,423.799524 345.215628,424.436545 C343.118567,429.162644 336.499021,446.202614 336.499021,446.202614 L331.909369,446.202614 L340.021485,425.195322 L329.394389,425.202549 Z" id="Path" fill="#231F20"></path>
            <path d="M283.04183,425.670103 L290.127451,425.670103 L290.127451,421.307671 L272.450226,421.307671 C271.238351,421.283768 270.197291,422.152609 270.019608,423.336202 L270.019608,425.626478 L277.598718,425.626478 L277.642911,446.202614 L283.078658,446.202614 L283.04183,425.670103 Z" id="Path" fill="#231F20"></path>
            <path d="M231.72078,446.202614 L245.426761,446.202614 C247.590864,446.202614 248.939821,444.548136 248.939821,443.300021 L248.939821,441.906776 L237.073326,441.906776 L237.073326,436.384593 L248.954248,436.384593 L248.954248,432.030703 L237.073326,432.030703 L237.073326,425.666768 L248.954248,425.666768 L248.954248,421.312878 L234.60625,421.312878 C233.840803,421.263108 233.090196,421.541687 232.540306,422.079629 C231.990416,422.617571 231.692662,423.364572 231.72078,424.13565 L231.72078,446.202614 Z" id="Path" fill="#231F20"></path>
            <path d="M268.967496,428.977362 L268.967496,426.572738 C269.018998,424.233299 265.207852,421.30719 259.402843,421.30719 C253.936276,421.30719 250.213419,423.639386 250.117773,428.586249 C250.029484,433.65624 254.532228,435.249666 259.343984,436.321607 C267.599015,438.146804 264.729619,442.840168 260.278377,442.840168 C256.518733,442.840168 255.591697,438.69726 253.899489,438.704503 C252.920952,438.704503 249.911765,438.704503 249.911765,438.704503 L250.301708,441.52197 C250.301708,441.52197 250.706367,447.316246 260.344594,447.156904 C266.738196,447.084475 270.019608,444.643636 270.019608,439.421545 C270.019608,433.735912 265.818518,432.96817 260.690393,431.454415 C257.931358,430.635974 255.282685,430.425931 255.282685,428.216864 C255.282685,426.254053 257.364836,425.609439 259.402843,425.609439 C261.133928,425.552548 262.783375,426.334659 263.817298,427.702622 C264.507991,428.554513 265.565215,429.03734 266.671979,429.006334 L268.967496,428.977362 Z" id="Path" fill="#231F20"></path>
        </g>
    </g>
</svg>